<mxfile host="app.diagrams.net" modified="2023-09-14T16:24:18.965Z" agent="Mozilla/5.0 (Windows NT 10.0; Win64; x64) AppleWebKit/537.36 (KHTML, like Gecko) Chrome/117.0.0.0 Safari/537.36" etag="CPFcmob7XDBmuRnlGHKu" version="21.7.5" type="github">
  <diagram id="C5RBs43oDa-KdzZeNtuy" name="Page-1">
    <mxGraphModel dx="1327" dy="844" grid="1" gridSize="10" guides="1" tooltips="1" connect="1" arrows="1" fold="1" page="1" pageScale="1" pageWidth="827" pageHeight="1169" math="0" shadow="0">
      <root>
        <mxCell id="WIyWlLk6GJQsqaUBKTNV-0" />
        <mxCell id="WIyWlLk6GJQsqaUBKTNV-1" parent="WIyWlLk6GJQsqaUBKTNV-0" />
        <mxCell id="zkfFHV4jXpPFQw0GAbJ--0" value="Cliente" style="swimlane;fontStyle=2;align=center;verticalAlign=top;childLayout=stackLayout;horizontal=1;startSize=26;horizontalStack=0;resizeParent=1;resizeLast=0;collapsible=1;marginBottom=0;rounded=0;shadow=0;strokeWidth=1;" parent="WIyWlLk6GJQsqaUBKTNV-1" vertex="1">
          <mxGeometry x="10" y="350" width="230" height="220" as="geometry">
            <mxRectangle x="230" y="140" width="160" height="26" as="alternateBounds" />
          </mxGeometry>
        </mxCell>
        <mxCell id="zkfFHV4jXpPFQw0GAbJ--1" value="- cedula: int   &#xa;- nombre: String&#xa;- apellidos: String &#xa;- celular: String&#xa;- correoElectronico: String &#xa;- direccionResidencia: String &#xa;- ciudad: String " style="text;align=left;verticalAlign=top;spacingLeft=4;spacingRight=4;overflow=hidden;rotatable=0;points=[[0,0.5],[1,0.5]];portConstraint=eastwest;" parent="zkfFHV4jXpPFQw0GAbJ--0" vertex="1">
          <mxGeometry y="26" width="230" height="114" as="geometry" />
        </mxCell>
        <mxCell id="zkfFHV4jXpPFQw0GAbJ--4" value="" style="line;html=1;strokeWidth=1;align=left;verticalAlign=middle;spacingTop=-1;spacingLeft=3;spacingRight=3;rotatable=0;labelPosition=right;points=[];portConstraint=eastwest;" parent="zkfFHV4jXpPFQw0GAbJ--0" vertex="1">
          <mxGeometry y="140" width="230" height="8" as="geometry" />
        </mxCell>
        <mxCell id="zkfFHV4jXpPFQw0GAbJ--5" value="crearCliente(): void&#xa;actualizarCliente(): void&#xa;eliminarCliente(): void&#xa;obtenerCliente(): void" style="text;align=left;verticalAlign=top;spacingLeft=4;spacingRight=4;overflow=hidden;rotatable=0;points=[[0,0.5],[1,0.5]];portConstraint=eastwest;" parent="zkfFHV4jXpPFQw0GAbJ--0" vertex="1">
          <mxGeometry y="148" width="230" height="72" as="geometry" />
        </mxCell>
        <mxCell id="zkfFHV4jXpPFQw0GAbJ--17" value="Empleado" style="swimlane;fontStyle=0;align=center;verticalAlign=top;childLayout=stackLayout;horizontal=1;startSize=26;horizontalStack=0;resizeParent=1;resizeLast=0;collapsible=1;marginBottom=0;rounded=0;shadow=0;strokeWidth=1;" parent="WIyWlLk6GJQsqaUBKTNV-1" vertex="1">
          <mxGeometry x="510" y="350" width="200" height="270" as="geometry">
            <mxRectangle x="550" y="140" width="160" height="26" as="alternateBounds" />
          </mxGeometry>
        </mxCell>
        <mxCell id="zkfFHV4jXpPFQw0GAbJ--18" value="- cedula: int   &#xa;- nombre: String&#xa;- apellidos: String &#xa;- celular: String&#xa;- correoElectronico: String &#xa;- direccionResidencia: String &#xa;- ciudad: String &#xa;- antiguedadEmpresa: int &#xa;- rh: String     &#xa;- tipoEmpleado: TipoEmpleado " style="text;align=left;verticalAlign=top;spacingLeft=4;spacingRight=4;overflow=hidden;rotatable=0;points=[[0,0.5],[1,0.5]];portConstraint=eastwest;" parent="zkfFHV4jXpPFQw0GAbJ--17" vertex="1">
          <mxGeometry y="26" width="200" height="154" as="geometry" />
        </mxCell>
        <mxCell id="zkfFHV4jXpPFQw0GAbJ--23" value="" style="line;html=1;strokeWidth=1;align=left;verticalAlign=middle;spacingTop=-1;spacingLeft=3;spacingRight=3;rotatable=0;labelPosition=right;points=[];portConstraint=eastwest;" parent="zkfFHV4jXpPFQw0GAbJ--17" vertex="1">
          <mxGeometry y="180" width="200" height="8" as="geometry" />
        </mxCell>
        <mxCell id="zkfFHV4jXpPFQw0GAbJ--24" value="crearEmpleado(): void&#xa;actualizarEmpleado(): void&#xa;eliminarEmpleado(): void&#xa;obtenerEmpleado(): void" style="text;align=left;verticalAlign=top;spacingLeft=4;spacingRight=4;overflow=hidden;rotatable=0;points=[[0,0.5],[1,0.5]];portConstraint=eastwest;" parent="zkfFHV4jXpPFQw0GAbJ--17" vertex="1">
          <mxGeometry y="188" width="200" height="72" as="geometry" />
        </mxCell>
        <mxCell id="XCWTy4G8o5zavnI8G2CW-0" value="Persona" style="swimlane;fontStyle=1;align=center;verticalAlign=top;childLayout=stackLayout;horizontal=1;startSize=26;horizontalStack=0;resizeParent=1;resizeParentMax=0;resizeLast=0;collapsible=1;marginBottom=0;whiteSpace=wrap;html=1;" parent="WIyWlLk6GJQsqaUBKTNV-1" vertex="1">
          <mxGeometry x="260" y="174" width="200" height="204" as="geometry" />
        </mxCell>
        <mxCell id="XCWTy4G8o5zavnI8G2CW-1" value="&lt;div&gt;- cedula: int&amp;nbsp; &amp;nbsp;&lt;/div&gt;&lt;div&gt;- nombre: String&lt;/div&gt;&lt;div&gt;- apellidos: String&amp;nbsp;&lt;/div&gt;&lt;div&gt;- celular: String&lt;/div&gt;&lt;div&gt;- correoElectronico: String&amp;nbsp;&lt;/div&gt;&lt;div&gt;- direccionResidencia: String&amp;nbsp;&lt;/div&gt;&lt;div&gt;- ciudad: String&amp;nbsp;&lt;/div&gt;" style="text;strokeColor=none;fillColor=none;align=left;verticalAlign=top;spacingLeft=4;spacingRight=4;overflow=hidden;rotatable=0;points=[[0,0.5],[1,0.5]];portConstraint=eastwest;whiteSpace=wrap;html=1;" parent="XCWTy4G8o5zavnI8G2CW-0" vertex="1">
          <mxGeometry y="26" width="200" height="144" as="geometry" />
        </mxCell>
        <mxCell id="XCWTy4G8o5zavnI8G2CW-2" value="" style="line;strokeWidth=1;fillColor=none;align=left;verticalAlign=middle;spacingTop=-1;spacingLeft=3;spacingRight=3;rotatable=0;labelPosition=right;points=[];portConstraint=eastwest;strokeColor=inherit;" parent="XCWTy4G8o5zavnI8G2CW-0" vertex="1">
          <mxGeometry y="170" width="200" height="8" as="geometry" />
        </mxCell>
        <mxCell id="XCWTy4G8o5zavnI8G2CW-3" value="+ method(type): type" style="text;strokeColor=none;fillColor=none;align=left;verticalAlign=top;spacingLeft=4;spacingRight=4;overflow=hidden;rotatable=0;points=[[0,0.5],[1,0.5]];portConstraint=eastwest;whiteSpace=wrap;html=1;" parent="XCWTy4G8o5zavnI8G2CW-0" vertex="1">
          <mxGeometry y="178" width="200" height="26" as="geometry" />
        </mxCell>
        <mxCell id="sOPFyRrpTD2RSbv7K-v1-4" value="MensajeriaExpress" style="swimlane;fontStyle=0;childLayout=stackLayout;horizontal=1;startSize=26;fillColor=none;horizontalStack=0;resizeParent=1;resizeParentMax=0;resizeLast=0;collapsible=1;marginBottom=0;whiteSpace=wrap;html=1;" parent="WIyWlLk6GJQsqaUBKTNV-1" vertex="1">
          <mxGeometry x="264" y="40" width="196" height="104" as="geometry" />
        </mxCell>
        <mxCell id="sOPFyRrpTD2RSbv7K-v1-5" value="- clientes: Lyst&amp;lt;Cliente&amp;gt;" style="text;strokeColor=none;fillColor=none;align=left;verticalAlign=top;spacingLeft=4;spacingRight=4;overflow=hidden;rotatable=0;points=[[0,0.5],[1,0.5]];portConstraint=eastwest;whiteSpace=wrap;html=1;" parent="sOPFyRrpTD2RSbv7K-v1-4" vertex="1">
          <mxGeometry y="26" width="196" height="26" as="geometry" />
        </mxCell>
        <mxCell id="sOPFyRrpTD2RSbv7K-v1-6" value="- empleados: Lyst&amp;lt;Empleado&amp;gt;" style="text;strokeColor=none;fillColor=none;align=left;verticalAlign=top;spacingLeft=4;spacingRight=4;overflow=hidden;rotatable=0;points=[[0,0.5],[1,0.5]];portConstraint=eastwest;whiteSpace=wrap;html=1;" parent="sOPFyRrpTD2RSbv7K-v1-4" vertex="1">
          <mxGeometry y="52" width="196" height="26" as="geometry" />
        </mxCell>
        <mxCell id="sOPFyRrpTD2RSbv7K-v1-7" value="- envios: Lyst&amp;lt;Envio&amp;gt;" style="text;strokeColor=none;fillColor=none;align=left;verticalAlign=top;spacingLeft=4;spacingRight=4;overflow=hidden;rotatable=0;points=[[0,0.5],[1,0.5]];portConstraint=eastwest;whiteSpace=wrap;html=1;" parent="sOPFyRrpTD2RSbv7K-v1-4" vertex="1">
          <mxGeometry y="78" width="196" height="26" as="geometry" />
        </mxCell>
        <mxCell id="LjxdtjwsalOc4ImMedM0-0" value="Paquete" style="swimlane;fontStyle=1;align=center;verticalAlign=top;childLayout=stackLayout;horizontal=1;startSize=26;horizontalStack=0;resizeParent=1;resizeParentMax=0;resizeLast=0;collapsible=1;marginBottom=0;whiteSpace=wrap;html=1;" parent="WIyWlLk6GJQsqaUBKTNV-1" vertex="1">
          <mxGeometry x="600" y="740" width="190" height="190" as="geometry" />
        </mxCell>
        <mxCell id="LjxdtjwsalOc4ImMedM0-1" value="- identificacion: String&lt;br&gt;- tipo: TipoPaquete&lt;br&gt;-peso: double" style="text;strokeColor=none;fillColor=none;align=left;verticalAlign=top;spacingLeft=4;spacingRight=4;overflow=hidden;rotatable=0;points=[[0,0.5],[1,0.5]];portConstraint=eastwest;whiteSpace=wrap;html=1;" parent="LjxdtjwsalOc4ImMedM0-0" vertex="1">
          <mxGeometry y="26" width="190" height="84" as="geometry" />
        </mxCell>
        <mxCell id="LjxdtjwsalOc4ImMedM0-2" value="" style="line;strokeWidth=1;fillColor=none;align=left;verticalAlign=middle;spacingTop=-1;spacingLeft=3;spacingRight=3;rotatable=0;labelPosition=right;points=[];portConstraint=eastwest;strokeColor=inherit;" parent="LjxdtjwsalOc4ImMedM0-0" vertex="1">
          <mxGeometry y="110" width="190" height="8" as="geometry" />
        </mxCell>
        <mxCell id="LjxdtjwsalOc4ImMedM0-3" value="+identificacion(value)&#xa;+tipo&#xa;+peso(value)&#xa;+build()" style="text;align=left;verticalAlign=top;spacingLeft=4;spacingRight=4;overflow=hidden;rotatable=0;points=[[0,0.5],[1,0.5]];portConstraint=eastwest;" parent="LjxdtjwsalOc4ImMedM0-0" vertex="1">
          <mxGeometry y="118" width="190" height="72" as="geometry" />
        </mxCell>
        <mxCell id="LjxdtjwsalOc4ImMedM0-4" value="Envio" style="swimlane;fontStyle=0;align=center;verticalAlign=top;childLayout=stackLayout;horizontal=1;startSize=26;horizontalStack=0;resizeParent=1;resizeLast=0;collapsible=1;marginBottom=0;rounded=0;shadow=0;strokeWidth=1;" parent="WIyWlLk6GJQsqaUBKTNV-1" vertex="1">
          <mxGeometry x="212" y="670" width="300" height="290" as="geometry">
            <mxRectangle x="130" y="380" width="160" height="26" as="alternateBounds" />
          </mxGeometry>
        </mxCell>
        <mxCell id="LjxdtjwsalOc4ImMedM0-5" value="-numeroGuia: string&#xa;-cliente: Client&#xa;-paquete: Paquete&#xa;-ciudadOrigen: string&#xa;-ciudadDestino: string&#xa;-direccionDestino: string&#xa;-nombreRecibe: string&#xa;-celular: int&#xa;-valorDeclaradoPaquete: int&#xa;-peso: int&#xa;-valorEnvio: int&#xa;-estadoEnvio: string&#xa;" style="text;align=left;verticalAlign=top;spacingLeft=4;spacingRight=4;overflow=hidden;rotatable=0;points=[[0,0.5],[1,0.5]];portConstraint=eastwest;" parent="LjxdtjwsalOc4ImMedM0-4" vertex="1">
          <mxGeometry y="26" width="300" height="174" as="geometry" />
        </mxCell>
        <mxCell id="LjxdtjwsalOc4ImMedM0-6" value="" style="line;html=1;strokeWidth=1;align=left;verticalAlign=middle;spacingTop=-1;spacingLeft=3;spacingRight=3;rotatable=0;labelPosition=right;points=[];portConstraint=eastwest;" parent="LjxdtjwsalOc4ImMedM0-4" vertex="1">
          <mxGeometry y="200" width="300" height="8" as="geometry" />
        </mxCell>
        <mxCell id="LjxdtjwsalOc4ImMedM0-7" value="crearEnvio(): void&#xa;obtenerEnvio(): void&#xa;actualizarEstadoEnvio(): void&#xa;filtrarEnviosPorEstado(): void" style="text;align=left;verticalAlign=top;spacingLeft=4;spacingRight=4;overflow=hidden;rotatable=0;points=[[0,0.5],[1,0.5]];portConstraint=eastwest;fontStyle=0" parent="LjxdtjwsalOc4ImMedM0-4" vertex="1">
          <mxGeometry y="208" width="300" height="82" as="geometry" />
        </mxCell>
        <mxCell id="LjxdtjwsalOc4ImMedM0-8" value="Extends" style="endArrow=block;endSize=16;endFill=0;html=1;rounded=0;exitX=1;exitY=0.5;exitDx=0;exitDy=0;entryX=0.465;entryY=-0.011;entryDx=0;entryDy=0;entryPerimeter=0;" parent="WIyWlLk6GJQsqaUBKTNV-1" source="XCWTy4G8o5zavnI8G2CW-1" target="zkfFHV4jXpPFQw0GAbJ--17" edge="1">
          <mxGeometry width="160" relative="1" as="geometry">
            <mxPoint x="500" y="270" as="sourcePoint" />
            <mxPoint x="660" y="270" as="targetPoint" />
            <Array as="points">
              <mxPoint x="603" y="272" />
            </Array>
          </mxGeometry>
        </mxCell>
        <mxCell id="LjxdtjwsalOc4ImMedM0-10" value="Extends" style="endArrow=block;endSize=16;endFill=0;html=1;rounded=0;exitX=0;exitY=0.5;exitDx=0;exitDy=0;entryX=0.47;entryY=-0.009;entryDx=0;entryDy=0;entryPerimeter=0;" parent="WIyWlLk6GJQsqaUBKTNV-1" source="XCWTy4G8o5zavnI8G2CW-1" target="zkfFHV4jXpPFQw0GAbJ--0" edge="1">
          <mxGeometry width="160" relative="1" as="geometry">
            <mxPoint x="-10" y="300" as="sourcePoint" />
            <mxPoint x="150" y="300" as="targetPoint" />
            <Array as="points">
              <mxPoint x="118" y="270" />
            </Array>
          </mxGeometry>
        </mxCell>
        <mxCell id="LjxdtjwsalOc4ImMedM0-11" value="name" style="endArrow=block;endFill=1;html=1;edgeStyle=orthogonalEdgeStyle;align=left;verticalAlign=top;rounded=0;exitX=1.013;exitY=0.886;exitDx=0;exitDy=0;exitPerimeter=0;entryX=0.32;entryY=0.003;entryDx=0;entryDy=0;entryPerimeter=0;" parent="WIyWlLk6GJQsqaUBKTNV-1" source="zkfFHV4jXpPFQw0GAbJ--1" target="LjxdtjwsalOc4ImMedM0-4" edge="1">
          <mxGeometry x="-1" relative="1" as="geometry">
            <mxPoint x="160" y="610" as="sourcePoint" />
            <mxPoint x="320" y="610" as="targetPoint" />
          </mxGeometry>
        </mxCell>
        <mxCell id="LjxdtjwsalOc4ImMedM0-12" value="1" style="edgeLabel;resizable=0;html=1;align=left;verticalAlign=bottom;" parent="LjxdtjwsalOc4ImMedM0-11" connectable="0" vertex="1">
          <mxGeometry x="-1" relative="1" as="geometry" />
        </mxCell>
        <mxCell id="LjxdtjwsalOc4ImMedM0-13" value="name" style="endArrow=block;endFill=1;html=1;edgeStyle=orthogonalEdgeStyle;align=left;verticalAlign=top;rounded=0;exitX=-0.015;exitY=0.656;exitDx=0;exitDy=0;exitPerimeter=0;entryX=0.75;entryY=0;entryDx=0;entryDy=0;" parent="WIyWlLk6GJQsqaUBKTNV-1" source="zkfFHV4jXpPFQw0GAbJ--18" target="LjxdtjwsalOc4ImMedM0-4" edge="1">
          <mxGeometry x="-1" relative="1" as="geometry">
            <mxPoint x="290" y="560" as="sourcePoint" />
            <mxPoint x="450" y="560" as="targetPoint" />
          </mxGeometry>
        </mxCell>
        <mxCell id="LjxdtjwsalOc4ImMedM0-14" value="1" style="edgeLabel;resizable=0;html=1;align=left;verticalAlign=bottom;" parent="LjxdtjwsalOc4ImMedM0-13" connectable="0" vertex="1">
          <mxGeometry x="-1" relative="1" as="geometry" />
        </mxCell>
        <mxCell id="LjxdtjwsalOc4ImMedM0-15" value="1" style="endArrow=open;html=1;endSize=12;startArrow=diamondThin;startSize=14;startFill=1;edgeStyle=orthogonalEdgeStyle;align=left;verticalAlign=bottom;rounded=0;entryX=-0.016;entryY=0.81;entryDx=0;entryDy=0;entryPerimeter=0;" parent="WIyWlLk6GJQsqaUBKTNV-1" source="LjxdtjwsalOc4ImMedM0-5" target="LjxdtjwsalOc4ImMedM0-1" edge="1">
          <mxGeometry x="-1" y="3" relative="1" as="geometry">
            <mxPoint x="530" y="815" as="sourcePoint" />
            <mxPoint x="690" y="815" as="targetPoint" />
          </mxGeometry>
        </mxCell>
        <mxCell id="9p0G8OHFXG8jgneaMk42-0" value="&lt;p style=&quot;margin:0px;margin-top:4px;text-align:center;&quot;&gt;&lt;i&gt;&amp;lt;&amp;lt;Interface&amp;gt;&amp;gt;&lt;/i&gt;&lt;br&gt;Nombrable&lt;br&gt;&lt;/p&gt;&lt;hr size=&quot;1&quot;&gt;&lt;p style=&quot;margin:0px;margin-left:4px;&quot;&gt;&lt;br&gt;&lt;/p&gt;&lt;p style=&quot;margin:0px;margin-left:4px;&quot;&gt;String getNombre();&amp;nbsp;&lt;/p&gt;&lt;p style=&quot;margin:0px;margin-left:4px;&quot;&gt;void setNombre(String nombre)&lt;br&gt;&lt;/p&gt;" style="verticalAlign=top;align=left;overflow=fill;fontSize=12;fontFamily=Helvetica;html=1;whiteSpace=wrap;" vertex="1" parent="WIyWlLk6GJQsqaUBKTNV-1">
          <mxGeometry x="1415" y="30" width="190" height="100" as="geometry" />
        </mxCell>
        <mxCell id="9p0G8OHFXG8jgneaMk42-1" value="&lt;p style=&quot;margin:0px;margin-top:4px;text-align:center;&quot;&gt;&lt;i&gt;&amp;lt;&amp;lt;Interface&amp;gt;&amp;gt;&lt;/i&gt;&lt;br&gt;ConDireccion&lt;br&gt;&lt;/p&gt;&lt;hr size=&quot;1&quot;&gt;&lt;p style=&quot;margin:0px;margin-left:4px;&quot;&gt;&lt;span style=&quot;background-color: initial;&quot;&gt;&lt;br&gt;&lt;/span&gt;&lt;/p&gt;&lt;p style=&quot;margin:0px;margin-left:4px;&quot;&gt;String getDireccion();&amp;nbsp;&lt;/p&gt;&lt;p style=&quot;margin:0px;margin-left:4px;&quot;&gt;void setDireccion(String direccion)&lt;br&gt;&lt;/p&gt;" style="verticalAlign=top;align=left;overflow=fill;fontSize=12;fontFamily=Helvetica;html=1;whiteSpace=wrap;" vertex="1" parent="WIyWlLk6GJQsqaUBKTNV-1">
          <mxGeometry x="1760" y="30" width="190" height="100" as="geometry" />
        </mxCell>
        <mxCell id="9p0G8OHFXG8jgneaMk42-2" value="&lt;p style=&quot;margin:0px;margin-top:4px;text-align:center;&quot;&gt;&lt;i&gt;&amp;lt;&amp;lt;Interface&amp;gt;&amp;gt;&lt;/i&gt;&lt;br&gt;Identificable&lt;br&gt;&lt;/p&gt;&lt;hr size=&quot;1&quot;&gt;&lt;p style=&quot;margin:0px;margin-left:4px;&quot;&gt;&lt;br&gt;&lt;/p&gt;&lt;p style=&quot;margin:0px;margin-left:4px;&quot;&gt;int getId();&amp;nbsp;&lt;/p&gt;&lt;p style=&quot;margin:0px;margin-left:4px;&quot;&gt;void setId(int id)&lt;br&gt;&lt;/p&gt;" style="verticalAlign=top;align=left;overflow=fill;fontSize=12;fontFamily=Helvetica;html=1;whiteSpace=wrap;" vertex="1" parent="WIyWlLk6GJQsqaUBKTNV-1">
          <mxGeometry x="1070" y="30" width="190" height="100" as="geometry" />
        </mxCell>
        <mxCell id="9p0G8OHFXG8jgneaMk42-3" value="&lt;p style=&quot;margin:0px;margin-top:4px;text-align:center;&quot;&gt;&lt;i&gt;&amp;lt;&amp;lt;abstract&amp;gt;&amp;gt;&lt;/i&gt;&lt;br&gt;Elemento&lt;br&gt;&lt;/p&gt;&lt;hr size=&quot;1&quot;&gt;&lt;p style=&quot;margin:0px;margin-left:4px;&quot;&gt;-id: int&amp;nbsp;&lt;/p&gt;&lt;p style=&quot;margin:0px;margin-left:4px;&quot;&gt;+getId(): int&amp;nbsp;&lt;/p&gt;&lt;p style=&quot;margin:0px;margin-left:4px;&quot;&gt;+setId(id: int): void&lt;br&gt;&lt;/p&gt;" style="verticalAlign=top;align=left;overflow=fill;fontSize=12;fontFamily=Helvetica;html=1;whiteSpace=wrap;" vertex="1" parent="WIyWlLk6GJQsqaUBKTNV-1">
          <mxGeometry x="1080" y="180" width="140" height="100" as="geometry" />
        </mxCell>
        <mxCell id="9p0G8OHFXG8jgneaMk42-4" value="&lt;p style=&quot;margin:0px;margin-top:4px;text-align:center;&quot;&gt;&lt;i&gt;&amp;lt;&amp;lt;abstract&amp;gt;&amp;gt;&lt;/i&gt;&lt;br&gt;Persona&lt;br&gt;&lt;/p&gt;&lt;hr size=&quot;1&quot;&gt;&lt;p style=&quot;margin:0px;margin-left:4px;&quot;&gt;-nombre: String&lt;br/&gt;    -direccion: String&lt;br/&gt;    +getNombre(): String&lt;br/&gt;    +setNombre(nombre: String): void&lt;br/&gt;    +getDireccion(): String&lt;br/&gt;    +setDireccion(direccion: String): void&lt;br&gt;&lt;/p&gt;" style="verticalAlign=top;align=left;overflow=fill;fontSize=12;fontFamily=Helvetica;html=1;whiteSpace=wrap;" vertex="1" parent="WIyWlLk6GJQsqaUBKTNV-1">
          <mxGeometry x="1260" y="180" width="210" height="150" as="geometry" />
        </mxCell>
        <mxCell id="9p0G8OHFXG8jgneaMk42-5" value="&lt;p style=&quot;margin:0px;margin-top:4px;text-align:center;&quot;&gt;&lt;i&gt;&amp;lt;&amp;lt;abstract&amp;gt;&amp;gt;&lt;/i&gt;&lt;br&gt;Empleado&lt;br&gt;&lt;/p&gt;&lt;hr size=&quot;1&quot;&gt;&lt;p style=&quot;margin:0px;margin-left:4px;&quot;&gt;-celular: String&lt;br/&gt;    -correo: String&lt;br/&gt;    -ciudad: String&lt;br/&gt;    -antiguedad: int&lt;br/&gt;    -rh: String&lt;br/&gt;    -tipoEmpleado: TipoEmpleado&lt;br/&gt;    +getCelular(): String&lt;br/&gt;    +setCelular(celular: String): void&lt;br/&gt;    +getCorreo(): String&lt;br/&gt;    +setCorreo(correo: String): void&lt;br/&gt;    +getCiudad(): String&lt;br/&gt;    +setCiudad(ciudad: String): void&lt;br/&gt;    +getAntiguedad(): int&lt;br/&gt;    +setAntiguedad(antiguedad: int): void&lt;br/&gt;    +getRh(): String&lt;br/&gt;    +setRh(rh: String): void&lt;br/&gt;    +getTipoEmpleado(): TipoEmpleado&lt;br/&gt;    +setTipoEmpleado(tipoEmpleado: TipoEmpleado): void&lt;br&gt;&lt;/p&gt;" style="verticalAlign=top;align=left;overflow=fill;fontSize=12;fontFamily=Helvetica;html=1;whiteSpace=wrap;" vertex="1" parent="WIyWlLk6GJQsqaUBKTNV-1">
          <mxGeometry x="1510" y="180" width="210" height="330" as="geometry" />
        </mxCell>
        <mxCell id="9p0G8OHFXG8jgneaMk42-6" value="&lt;p style=&quot;margin:0px;margin-top:4px;text-align:center;&quot;&gt;&lt;i&gt;&amp;lt;&amp;lt;abstract&amp;gt;&amp;gt;&lt;/i&gt;&lt;br&gt;&lt;b&gt;Cliente&lt;/b&gt;&lt;/p&gt;&lt;hr size=&quot;1&quot;&gt;&lt;p style=&quot;margin:0px;margin-left:4px;&quot;&gt;&lt;/p&gt;&lt;p style=&quot;margin:0px;margin-left:4px;&quot;&gt;&lt;br&gt;&lt;/p&gt;" style="verticalAlign=top;align=left;overflow=fill;fontSize=12;fontFamily=Helvetica;html=1;whiteSpace=wrap;" vertex="1" parent="WIyWlLk6GJQsqaUBKTNV-1">
          <mxGeometry x="1760" y="180" width="190" height="75" as="geometry" />
        </mxCell>
        <mxCell id="9p0G8OHFXG8jgneaMk42-7" value="&lt;p style=&quot;margin:0px;margin-top:4px;text-align:center;&quot;&gt;&lt;b&gt;TipoEmpleado&lt;/b&gt;&lt;/p&gt;&lt;hr size=&quot;1&quot;&gt;&lt;p style=&quot;margin:0px;margin-left:4px;&quot;&gt;&lt;/p&gt;&lt;p style=&quot;margin:0px;margin-left:4px;&quot;&gt;-tipoEmpleado: String&lt;br/&gt;    +getTipoEmpleado(): String&lt;br/&gt;    +setTipoEmpleado(tipoEmpleado: String): void&lt;br&gt;&lt;/p&gt;" style="verticalAlign=top;align=left;overflow=fill;fontSize=12;fontFamily=Helvetica;html=1;whiteSpace=wrap;" vertex="1" parent="WIyWlLk6GJQsqaUBKTNV-1">
          <mxGeometry x="1070" y="370" width="190" height="100" as="geometry" />
        </mxCell>
        <mxCell id="9p0G8OHFXG8jgneaMk42-8" value="&lt;p style=&quot;margin:0px;margin-top:4px;text-align:center;&quot;&gt;&lt;b&gt;Usuarios&lt;/b&gt;&lt;/p&gt;&lt;hr size=&quot;1&quot;&gt;&lt;p style=&quot;margin:0px;margin-left:4px;&quot;&gt;&lt;/p&gt;&lt;p style=&quot;margin:0px;margin-left:4px;&quot;&gt;-nombreUsuario: String&lt;br/&gt;    -contraseña: String&lt;br/&gt;    -empleado: Empleado&lt;br/&gt;    -cliente: Cliente&lt;br/&gt;    +getNombreUsuario(): String&lt;br/&gt;    +setNombreUsuario(nombreUsuario: String): void&lt;br/&gt;    +getContraseña(): String&lt;br/&gt;    +setContraseña(contraseña: String): void&lt;br/&gt;    +getEmpleado(): Empleado&lt;br/&gt;    +setEmpleado(empleado: Empleado): void&lt;br/&gt;    +getCliente(): Cliente&lt;br/&gt;    +setCliente(cliente: Cliente): void&lt;br&gt;&lt;/p&gt;" style="verticalAlign=top;align=left;overflow=fill;fontSize=12;fontFamily=Helvetica;html=1;whiteSpace=wrap;" vertex="1" parent="WIyWlLk6GJQsqaUBKTNV-1">
          <mxGeometry x="1160" y="810" width="240" height="230" as="geometry" />
        </mxCell>
        <mxCell id="9p0G8OHFXG8jgneaMk42-9" value="&lt;p style=&quot;margin:0px;margin-top:4px;text-align:center;&quot;&gt;&lt;b&gt;Paquete&lt;/b&gt;&lt;/p&gt;&lt;hr size=&quot;1&quot;&gt;&lt;p style=&quot;margin:0px;margin-left:4px;&quot;&gt;&lt;/p&gt;&lt;p style=&quot;margin:0px;margin-left:4px;&quot;&gt;-tipoPaquete: String&lt;br/&gt;    -peso: double&lt;br/&gt;    -valorDeclarado: double&lt;br/&gt;    +getTipoPaquete(): String&lt;br/&gt;    +setTipoPaquete(tipoPaquete: String): void&lt;br/&gt;    +getPeso(): double&lt;br/&gt;    +setPeso(peso: double): void&lt;br/&gt;    +getValorDeclarado(): double&lt;br/&gt;    +setValorDeclarado(valorDeclarado: double): void&lt;br&gt;&lt;/p&gt;" style="verticalAlign=top;align=left;overflow=fill;fontSize=12;fontFamily=Helvetica;html=1;whiteSpace=wrap;" vertex="1" parent="WIyWlLk6GJQsqaUBKTNV-1">
          <mxGeometry x="1070" y="580" width="200" height="200" as="geometry" />
        </mxCell>
        <mxCell id="9p0G8OHFXG8jgneaMk42-10" value="&lt;p style=&quot;margin:0px;margin-top:4px;text-align:center;&quot;&gt;&lt;b&gt;Envio&lt;/b&gt;&lt;/p&gt;&lt;hr size=&quot;1&quot;&gt;&lt;p style=&quot;margin:0px;margin-left:4px;&quot;&gt;&lt;/p&gt;&lt;p style=&quot;margin:0px;margin-left:4px;&quot;&gt;-numeroGuia: String&lt;br&gt;    -cliente: Cliente&lt;br&gt;    -ciudadOrigen: Ciudad&lt;br&gt;    -ciudadDestino: Ciudad&lt;br&gt;    -direccionDestino: String&lt;br&gt;    -nombreRecibe: String&lt;br&gt;    -celularRecibe: String&lt;br&gt;    -horaEntrega: Date&lt;br&gt;    -estadoEnvio: EstadoEnvio&lt;br&gt;    -valorEnvio: double&lt;br&gt;    -paquete: Paquete&lt;br&gt;&lt;br&gt;&lt;/p&gt;" style="verticalAlign=top;align=left;overflow=fill;fontSize=12;fontFamily=Helvetica;html=1;whiteSpace=wrap;" vertex="1" parent="WIyWlLk6GJQsqaUBKTNV-1">
          <mxGeometry x="1300" y="580" width="240" height="190" as="geometry" />
        </mxCell>
        <mxCell id="9p0G8OHFXG8jgneaMk42-11" value="&lt;p style=&quot;margin:0px;margin-top:4px;text-align:center;&quot;&gt;&lt;b&gt;RegistroEnvio&lt;/b&gt;&lt;/p&gt;&lt;hr size=&quot;1&quot;&gt;&lt;p style=&quot;margin:0px;margin-left:4px;&quot;&gt;&lt;/p&gt;&lt;p style=&quot;margin:0px;margin-left:4px;&quot;&gt;-numeroGuia: String&lt;br/&gt;    -fechaRegistro: Date&lt;br/&gt;    -estadoEnvio: EstadoEnvio&lt;br/&gt;    -envio: Envio&lt;br/&gt;    +getNumeroGuia(): String&lt;br/&gt;    +setNumeroGuia(numeroGuia: String): void&lt;br/&gt;    +getFechaRegistro(): Date&lt;br/&gt;    +setFechaRegistro(fechaRegistro: Date): void&lt;br/&gt;    +getEstadoEnvio(): EstadoEnvio&lt;br/&gt;    +setEstadoEnvio(estadoEnvio: EstadoEnvio): void&lt;br/&gt;    +getEnvio(): Envio&lt;br/&gt;    +setEnvio(envio: Envio): void&lt;br&gt;&lt;/p&gt;" style="verticalAlign=top;align=left;overflow=fill;fontSize=12;fontFamily=Helvetica;html=1;whiteSpace=wrap;" vertex="1" parent="WIyWlLk6GJQsqaUBKTNV-1">
          <mxGeometry x="1570" y="580" width="190" height="260" as="geometry" />
        </mxCell>
        <mxCell id="9p0G8OHFXG8jgneaMk42-12" value="&lt;p style=&quot;margin:0px;margin-top:4px;text-align:center;&quot;&gt;&lt;b&gt;Ciudad&lt;/b&gt;&lt;/p&gt;&lt;hr size=&quot;1&quot;&gt;&lt;p style=&quot;margin:0px;margin-left:4px;&quot;&gt;&lt;/p&gt;&lt;p style=&quot;margin:0px;margin-left:4px;&quot;&gt;-codigoPostal: String&lt;br/&gt;    -poblacion: int&lt;br/&gt;    +getCodigoPostal(): String&lt;br/&gt;    +setCodigoPostal(codigoPostal: String): void&lt;br/&gt;    +getPoblacion(): int&lt;br/&gt;    +setPoblacion(poblacion: int): void&lt;br&gt;&lt;/p&gt;" style="verticalAlign=top;align=left;overflow=fill;fontSize=12;fontFamily=Helvetica;html=1;whiteSpace=wrap;" vertex="1" parent="WIyWlLk6GJQsqaUBKTNV-1">
          <mxGeometry x="1790" y="580" width="190" height="140" as="geometry" />
        </mxCell>
        <mxCell id="9p0G8OHFXG8jgneaMk42-13" value="&lt;p style=&quot;margin:0px;margin-top:4px;text-align:center;&quot;&gt;&lt;b&gt;EstadoEnvio&lt;/b&gt;&lt;/p&gt;&lt;hr size=&quot;1&quot;&gt;&lt;p style=&quot;margin:0px;margin-left:4px;&quot;&gt;&lt;/p&gt;&lt;p style=&quot;margin:0px;margin-left:4px;&quot;&gt;-estadoEnvio: String&lt;br/&gt;    +getEstadoEnvio(): String&lt;br/&gt;    +setEstadoEnvio(estadoEnvio: String): void&lt;br&gt;&lt;/p&gt;" style="verticalAlign=top;align=left;overflow=fill;fontSize=12;fontFamily=Helvetica;html=1;whiteSpace=wrap;" vertex="1" parent="WIyWlLk6GJQsqaUBKTNV-1">
          <mxGeometry x="1760" y="370" width="170" height="100" as="geometry" />
        </mxCell>
        <mxCell id="9p0G8OHFXG8jgneaMk42-14" value="&lt;p style=&quot;margin:0px;margin-top:4px;text-align:center;&quot;&gt;&lt;b&gt;TipoPaquete&lt;/b&gt;&lt;/p&gt;&lt;hr size=&quot;1&quot;&gt;&lt;p style=&quot;margin:0px;margin-left:4px;&quot;&gt;&lt;/p&gt;&lt;p style=&quot;margin:0px;margin-left:4px;&quot;&gt;-tipoPaquete: String&lt;br/&gt;    +getTipoPaquete(): String&lt;br/&gt;    +setTipoPaquete(tipoPaquete: String): void&lt;br&gt;&lt;/p&gt;" style="verticalAlign=top;align=left;overflow=fill;fontSize=12;fontFamily=Helvetica;html=1;whiteSpace=wrap;" vertex="1" parent="WIyWlLk6GJQsqaUBKTNV-1">
          <mxGeometry x="1300" y="370" width="170" height="100" as="geometry" />
        </mxCell>
        <mxCell id="9p0G8OHFXG8jgneaMk42-15" value="" style="endArrow=block;endSize=16;endFill=0;html=1;rounded=0;entryX=0.5;entryY=0;entryDx=0;entryDy=0;exitX=0.5;exitY=0;exitDx=0;exitDy=0;" edge="1" parent="WIyWlLk6GJQsqaUBKTNV-1" source="9p0G8OHFXG8jgneaMk42-4" target="9p0G8OHFXG8jgneaMk42-5">
          <mxGeometry width="160" relative="1" as="geometry">
            <mxPoint x="1320" y="120" as="sourcePoint" />
            <mxPoint x="1620" y="150" as="targetPoint" />
            <Array as="points">
              <mxPoint x="1365" y="150" />
              <mxPoint x="1615" y="150" />
            </Array>
          </mxGeometry>
        </mxCell>
        <mxCell id="9p0G8OHFXG8jgneaMk42-16" value="" style="endArrow=block;endSize=16;endFill=0;html=1;rounded=0;entryX=0.5;entryY=0;entryDx=0;entryDy=0;exitX=0.5;exitY=0;exitDx=0;exitDy=0;" edge="1" parent="WIyWlLk6GJQsqaUBKTNV-1" source="9p0G8OHFXG8jgneaMk42-4" target="9p0G8OHFXG8jgneaMk42-6">
          <mxGeometry width="160" relative="1" as="geometry">
            <mxPoint x="1560" y="140" as="sourcePoint" />
            <mxPoint x="1720" y="140" as="targetPoint" />
            <Array as="points">
              <mxPoint x="1365" y="150" />
              <mxPoint x="1855" y="150" />
              <mxPoint x="1855" y="160" />
            </Array>
          </mxGeometry>
        </mxCell>
        <mxCell id="9p0G8OHFXG8jgneaMk42-17" value="" style="endArrow=block;endSize=16;endFill=0;html=1;rounded=0;entryX=0.5;entryY=1;entryDx=0;entryDy=0;exitX=0.5;exitY=0;exitDx=0;exitDy=0;" edge="1" parent="WIyWlLk6GJQsqaUBKTNV-1" source="9p0G8OHFXG8jgneaMk42-3" target="9p0G8OHFXG8jgneaMk42-2">
          <mxGeometry width="160" relative="1" as="geometry">
            <mxPoint x="1370" y="210" as="sourcePoint" />
            <mxPoint x="1530" y="210" as="targetPoint" />
          </mxGeometry>
        </mxCell>
        <mxCell id="9p0G8OHFXG8jgneaMk42-18" value="" style="endArrow=block;endSize=16;endFill=0;html=1;rounded=0;entryX=0.5;entryY=1;entryDx=0;entryDy=0;exitX=0.5;exitY=0;exitDx=0;exitDy=0;" edge="1" parent="WIyWlLk6GJQsqaUBKTNV-1" source="9p0G8OHFXG8jgneaMk42-4" target="9p0G8OHFXG8jgneaMk42-0">
          <mxGeometry width="160" relative="1" as="geometry">
            <mxPoint x="1370" y="210" as="sourcePoint" />
            <mxPoint x="1530" y="210" as="targetPoint" />
            <Array as="points">
              <mxPoint x="1365" y="150" />
              <mxPoint x="1510" y="150" />
            </Array>
          </mxGeometry>
        </mxCell>
        <mxCell id="9p0G8OHFXG8jgneaMk42-19" value="" style="endArrow=block;endSize=16;endFill=0;html=1;rounded=0;entryX=0.75;entryY=1;entryDx=0;entryDy=0;exitX=0.5;exitY=0;exitDx=0;exitDy=0;" edge="1" parent="WIyWlLk6GJQsqaUBKTNV-1" source="9p0G8OHFXG8jgneaMk42-4" target="9p0G8OHFXG8jgneaMk42-1">
          <mxGeometry width="160" relative="1" as="geometry">
            <mxPoint x="1440" y="210" as="sourcePoint" />
            <mxPoint x="1600" y="210" as="targetPoint" />
            <Array as="points">
              <mxPoint x="1365" y="150" />
              <mxPoint x="1903" y="150" />
            </Array>
          </mxGeometry>
        </mxCell>
        <mxCell id="9p0G8OHFXG8jgneaMk42-20" value="" style="endArrow=diamondThin;endFill=1;endSize=24;html=1;rounded=0;entryX=0.5;entryY=0;entryDx=0;entryDy=0;" edge="1" parent="WIyWlLk6GJQsqaUBKTNV-1" target="9p0G8OHFXG8jgneaMk42-7">
          <mxGeometry width="160" relative="1" as="geometry">
            <mxPoint x="1510" y="350" as="sourcePoint" />
            <mxPoint x="1600" y="210" as="targetPoint" />
            <Array as="points">
              <mxPoint x="1165" y="350" />
            </Array>
          </mxGeometry>
        </mxCell>
        <mxCell id="9p0G8OHFXG8jgneaMk42-21" value="" style="endArrow=diamondThin;endFill=1;endSize=24;html=1;rounded=0;entryX=0.5;entryY=0;entryDx=0;entryDy=0;exitX=0.5;exitY=1;exitDx=0;exitDy=0;" edge="1" parent="WIyWlLk6GJQsqaUBKTNV-1" source="9p0G8OHFXG8jgneaMk42-13" target="9p0G8OHFXG8jgneaMk42-10">
          <mxGeometry width="160" relative="1" as="geometry">
            <mxPoint x="1440" y="610" as="sourcePoint" />
            <mxPoint x="1600" y="610" as="targetPoint" />
            <Array as="points">
              <mxPoint x="1845" y="530" />
              <mxPoint x="1420" y="530" />
            </Array>
          </mxGeometry>
        </mxCell>
        <mxCell id="9p0G8OHFXG8jgneaMk42-22" value="" style="endArrow=diamondThin;endFill=1;endSize=24;html=1;rounded=0;exitX=0.5;exitY=0;exitDx=0;exitDy=0;entryX=0.5;entryY=0;entryDx=0;entryDy=0;" edge="1" parent="WIyWlLk6GJQsqaUBKTNV-1" source="9p0G8OHFXG8jgneaMk42-9" target="9p0G8OHFXG8jgneaMk42-10">
          <mxGeometry width="160" relative="1" as="geometry">
            <mxPoint x="1220" y="520" as="sourcePoint" />
            <mxPoint x="1380" y="520" as="targetPoint" />
            <Array as="points">
              <mxPoint x="1170" y="530" />
              <mxPoint x="1420" y="530" />
            </Array>
          </mxGeometry>
        </mxCell>
        <mxCell id="9p0G8OHFXG8jgneaMk42-23" value="" style="endArrow=diamondThin;endFill=1;endSize=24;html=1;rounded=0;exitX=0.75;exitY=0;exitDx=0;exitDy=0;entryX=0.25;entryY=1;entryDx=0;entryDy=0;" edge="1" parent="WIyWlLk6GJQsqaUBKTNV-1" source="9p0G8OHFXG8jgneaMk42-10" target="9p0G8OHFXG8jgneaMk42-13">
          <mxGeometry width="160" relative="1" as="geometry">
            <mxPoint x="1480" y="540" as="sourcePoint" />
            <mxPoint x="1760" y="500" as="targetPoint" />
            <Array as="points">
              <mxPoint x="1480" y="550" />
              <mxPoint x="1800" y="550" />
            </Array>
          </mxGeometry>
        </mxCell>
        <mxCell id="9p0G8OHFXG8jgneaMk42-24" value="" style="endArrow=diamondThin;endFill=1;endSize=24;html=1;rounded=0;entryX=0.5;entryY=0;entryDx=0;entryDy=0;exitX=0.75;exitY=0;exitDx=0;exitDy=0;" edge="1" parent="WIyWlLk6GJQsqaUBKTNV-1" source="9p0G8OHFXG8jgneaMk42-10" target="9p0G8OHFXG8jgneaMk42-12">
          <mxGeometry width="160" relative="1" as="geometry">
            <mxPoint x="1440" y="610" as="sourcePoint" />
            <mxPoint x="1600" y="610" as="targetPoint" />
            <Array as="points">
              <mxPoint x="1480" y="550" />
              <mxPoint x="1885" y="550" />
            </Array>
          </mxGeometry>
        </mxCell>
        <mxCell id="9p0G8OHFXG8jgneaMk42-25" value="" style="endArrow=diamondThin;endFill=1;endSize=24;html=1;rounded=0;entryX=0.5;entryY=1;entryDx=0;entryDy=0;exitX=0.75;exitY=0;exitDx=0;exitDy=0;" edge="1" parent="WIyWlLk6GJQsqaUBKTNV-1" source="9p0G8OHFXG8jgneaMk42-10" target="9p0G8OHFXG8jgneaMk42-6">
          <mxGeometry width="160" relative="1" as="geometry">
            <mxPoint x="1440" y="410" as="sourcePoint" />
            <mxPoint x="1600" y="410" as="targetPoint" />
            <Array as="points">
              <mxPoint x="1480" y="550" />
              <mxPoint x="1740" y="550" />
              <mxPoint x="1740" y="300" />
              <mxPoint x="1855" y="300" />
            </Array>
          </mxGeometry>
        </mxCell>
        <mxCell id="9p0G8OHFXG8jgneaMk42-26" value="" style="endArrow=diamondThin;endFill=1;endSize=24;html=1;rounded=0;entryX=0.75;entryY=0;entryDx=0;entryDy=0;exitX=0.25;exitY=0;exitDx=0;exitDy=0;" edge="1" parent="WIyWlLk6GJQsqaUBKTNV-1" source="9p0G8OHFXG8jgneaMk42-10" target="9p0G8OHFXG8jgneaMk42-9">
          <mxGeometry width="160" relative="1" as="geometry">
            <mxPoint x="1440" y="610" as="sourcePoint" />
            <mxPoint x="1600" y="610" as="targetPoint" />
            <Array as="points">
              <mxPoint x="1360" y="550" />
              <mxPoint x="1220" y="550" />
            </Array>
          </mxGeometry>
        </mxCell>
        <mxCell id="9p0G8OHFXG8jgneaMk42-27" value="" style="endArrow=block;endSize=16;endFill=0;html=1;rounded=0;entryX=0.75;entryY=1;entryDx=0;entryDy=0;exitX=0.25;exitY=0;exitDx=0;exitDy=0;" edge="1" parent="WIyWlLk6GJQsqaUBKTNV-1" source="9p0G8OHFXG8jgneaMk42-5" target="9p0G8OHFXG8jgneaMk42-2">
          <mxGeometry width="160" relative="1" as="geometry">
            <mxPoint x="1410" y="110" as="sourcePoint" />
            <mxPoint x="1570" y="110" as="targetPoint" />
            <Array as="points">
              <mxPoint x="1563" y="160" />
              <mxPoint x="1370" y="160" />
              <mxPoint x="1213" y="160" />
            </Array>
          </mxGeometry>
        </mxCell>
        <mxCell id="9p0G8OHFXG8jgneaMk42-28" value="" style="endArrow=block;endSize=16;endFill=0;html=1;rounded=0;entryX=0.75;entryY=1;entryDx=0;entryDy=0;exitX=0.25;exitY=0;exitDx=0;exitDy=0;" edge="1" parent="WIyWlLk6GJQsqaUBKTNV-1" source="9p0G8OHFXG8jgneaMk42-6" target="9p0G8OHFXG8jgneaMk42-2">
          <mxGeometry width="160" relative="1" as="geometry">
            <mxPoint x="1410" y="110" as="sourcePoint" />
            <mxPoint x="1570" y="110" as="targetPoint" />
            <Array as="points">
              <mxPoint x="1808" y="160" />
              <mxPoint x="1213" y="160" />
            </Array>
          </mxGeometry>
        </mxCell>
        <mxCell id="9p0G8OHFXG8jgneaMk42-29" value="" style="endArrow=block;endSize=16;endFill=0;html=1;rounded=0;entryX=0.75;entryY=1;entryDx=0;entryDy=0;exitX=0.25;exitY=0;exitDx=0;exitDy=0;" edge="1" parent="WIyWlLk6GJQsqaUBKTNV-1">
          <mxGeometry width="160" relative="1" as="geometry">
            <mxPoint x="1120" y="580" as="sourcePoint" />
            <mxPoint x="1212.5" y="130" as="targetPoint" />
            <Array as="points">
              <mxPoint x="1120" y="500" />
              <mxPoint x="1280" y="500" />
              <mxPoint x="1280" y="350" />
              <mxPoint x="1240" y="330" />
              <mxPoint x="1240" y="160" />
              <mxPoint x="1213" y="160" />
              <mxPoint x="1213" y="150" />
            </Array>
          </mxGeometry>
        </mxCell>
        <mxCell id="9p0G8OHFXG8jgneaMk42-30" value="" style="endArrow=diamondThin;endFill=1;endSize=24;html=1;rounded=0;entryX=0.75;entryY=1;entryDx=0;entryDy=0;exitX=0.5;exitY=1;exitDx=0;exitDy=0;" edge="1" parent="WIyWlLk6GJQsqaUBKTNV-1" source="9p0G8OHFXG8jgneaMk42-11" target="9p0G8OHFXG8jgneaMk42-10">
          <mxGeometry width="160" relative="1" as="geometry">
            <mxPoint x="1480" y="880" as="sourcePoint" />
            <mxPoint x="1570" y="810" as="targetPoint" />
            <Array as="points">
              <mxPoint x="1665" y="880" />
              <mxPoint x="1480" y="880" />
            </Array>
          </mxGeometry>
        </mxCell>
        <mxCell id="9p0G8OHFXG8jgneaMk42-31" value="" style="endArrow=diamondThin;endFill=1;endSize=24;html=1;rounded=0;entryX=0.75;entryY=1;entryDx=0;entryDy=0;exitX=0.75;exitY=0;exitDx=0;exitDy=0;" edge="1" parent="WIyWlLk6GJQsqaUBKTNV-1" source="9p0G8OHFXG8jgneaMk42-11" target="9p0G8OHFXG8jgneaMk42-13">
          <mxGeometry width="160" relative="1" as="geometry">
            <mxPoint x="1410" y="510" as="sourcePoint" />
            <mxPoint x="1570" y="510" as="targetPoint" />
          </mxGeometry>
        </mxCell>
        <mxCell id="9p0G8OHFXG8jgneaMk42-32" value="" style="endArrow=block;endSize=16;endFill=0;html=1;rounded=0;exitX=0;exitY=0.5;exitDx=0;exitDy=0;entryX=0;entryY=0.5;entryDx=0;entryDy=0;" edge="1" parent="WIyWlLk6GJQsqaUBKTNV-1" source="9p0G8OHFXG8jgneaMk42-8" target="9p0G8OHFXG8jgneaMk42-2">
          <mxGeometry width="160" relative="1" as="geometry">
            <mxPoint x="1410" y="910" as="sourcePoint" />
            <mxPoint x="1040" y="90" as="targetPoint" />
            <Array as="points">
              <mxPoint x="1040" y="925" />
              <mxPoint x="1040" y="80" />
            </Array>
          </mxGeometry>
        </mxCell>
        <mxCell id="9p0G8OHFXG8jgneaMk42-33" value="" style="endArrow=classic;html=1;rounded=0;entryX=0.5;entryY=1;entryDx=0;entryDy=0;" edge="1" parent="WIyWlLk6GJQsqaUBKTNV-1" source="9p0G8OHFXG8jgneaMk42-9" target="9p0G8OHFXG8jgneaMk42-14">
          <mxGeometry width="50" height="50" relative="1" as="geometry">
            <mxPoint x="1600" y="790" as="sourcePoint" />
            <mxPoint x="1650" y="740" as="targetPoint" />
          </mxGeometry>
        </mxCell>
      </root>
    </mxGraphModel>
  </diagram>
</mxfile>
